<svg width="40" height="40" viewBox="0 0 40 40" fill="none" xmlns="http://www.w3.org/2000/svg">
<g clip-path="url(#clip0_370_1108)">
<path d="M38.91 8.45772L1.10643 8.44452C0.892093 8.44399 0.682285 8.50613 0.50285 8.62328C0.323415 8.74043 0.182192 8.90747 0.0965767 9.10383C0.0109618 9.30019 -0.0153045 9.51729 0.0210136 9.72838C0.0573318 9.93947 0.154648 10.1353 0.300974 10.2918L7.19355 17.7075C7.32961 17.8556 7.50381 17.9635 7.6971 18.0194C7.89039 18.0752 8.09532 18.0769 8.28949 18.0242L37.6556 10.0279L16.8722 25.4795C16.7305 25.5839 16.6161 25.7209 16.5385 25.8789C16.4608 26.0368 16.4223 26.2111 16.4262 26.387C16.4301 26.5629 16.4763 26.7353 16.5608 26.8897C16.6453 27.0441 16.7657 27.1759 16.9118 27.274L28.7163 35.1911C28.8528 35.2843 29.0086 35.3453 29.1721 35.3695C29.3355 35.3938 29.5024 35.3806 29.66 35.3311C29.8177 35.2815 29.962 35.1969 30.0822 35.0835C30.2023 34.9701 30.2951 34.8309 30.3537 34.6765L39.9267 9.94877C39.9933 9.7833 40.018 9.60398 39.9988 9.42667C39.9796 9.24936 39.917 9.07951 39.8165 8.93213C39.716 8.78475 39.5807 8.66437 39.4226 8.58162C39.2645 8.49888 39.0884 8.45633 38.91 8.45772Z" fill="#E74444"/>
<path d="M14.192 16.4144L37.6558 10.0148L14.4561 22.6953L14.192 16.4144Z" fill="#DC7F7C"/>
<path d="M20.5695 22.7349L14.4559 22.6953L37.6557 10.0148L20.5695 22.7349Z" fill="#F8C6C4"/>
<path d="M14.1919 16.4144L37.6557 10.0148L8.84418 10.8593L14.1919 16.4144Z" fill="white"/>
<path d="M20.5693 22.7349L29.1784 28.0657L37.6555 10.0148L20.5693 22.7349Z" fill="white"/>
</g>
<defs>
<clipPath id="clip0_370_1108">
<rect width="40" height="40" fill="white"/>
</clipPath>
</defs>
</svg>
