<svg id="Logo" xmlns="http://www.w3.org/2000/svg" viewBox="0 0 850.07 204.13"><defs><style>.cls-1{fill:#b53c36;}.cls-2{fill:#dc7f7c;}.cls-3{fill:#f8c6c4;}.cls-4{fill:#fff;}.cls-5{isolation:isolate;}</style></defs><title>avion-logo</title><g id="Symbol"><path class="cls-1" d="M294.67.1,8.37,0a8.32,8.32,0,0,0-6.1,14l52.2,56.2a8.31,8.31,0,0,0,8.3,2.4L285.17,12,127.77,129.1a8.32,8.32,0,0,0,.3,13.6l89.4,60a8.27,8.27,0,0,0,12.4-3.9l72.5-187.4A8.23,8.23,0,0,0,294.67.1Z"/><polygon class="cls-2" points="107.47 60.4 285.17 11.9 109.47 108 107.47 60.4"/><polygon class="cls-3" points="155.77 108.3 109.47 108 285.17 11.9 155.77 108.3"/><polygon class="cls-4" points="107.47 60.4 285.17 11.9 66.97 18.3 107.47 60.4"/><polygon class="cls-4" points="155.77 108.3 220.97 148.7 285.17 11.9 155.77 108.3"/></g><g class="cls-5"><path class="cls-1" d="M357.57,98.6c0-34.6,24.8-51.8,48-51.8,17.9,0,29.4,9.8,31.9,15.4h.6V48.8h25.7v99.8h-25.7V135.2h-.6c-2.5,5.6-14,15.4-31.9,15.4C382.37,150.5,357.57,133.2,357.57,98.6Zm81,0c0-18.8-13.4-28.8-27.8-28.8S383,80,383,98.6s13.4,28.8,27.8,28.8S438.57,117.4,438.57,98.6Z"/><path class="cls-1" d="M474.67,48.7H501l27.6,69.3,27.5-69.3h26.5l-42,99.8h-24Z"/><path class="cls-1" d="M595.47,12.2h25.7V34.9h-25.7Zm0,36.5h25.7v99.8h-25.7Z"/><path class="cls-1" d="M636,98.6c0-33.8,26.5-51.8,52.6-51.8,25.9,0,52.6,18,52.6,51.8s-26.7,51.8-52.6,51.8C662.47,150.5,636,132.4,636,98.6Zm79.7,0c0-17.9-12.7-28.6-27.1-28.6s-27.3,10.8-27.3,28.6,12.9,28.6,27.3,28.6S715.67,116.5,715.67,98.6Z"/><path class="cls-1" d="M850.07,89.8v58.8h-25.7V94.1c0-14.6-7.9-24.2-21.3-24.2-13.2,0-21.3,9.6-21.3,24.2v54.5H756V48.8h25.7V62.3c5.6-8.8,15.6-15.6,30.5-15.6C832.77,46.8,850.07,59.5,850.07,89.8Z"/></g></svg>